HIERARCHY
ROOT Hips
{
  OFFSET 5.84602e-005 68.8428 3.50346
  CHANNELS 6 Xposition Yposition Zposition Zrotation Xrotation Yrotation
  JOINT Spine
  {
    OFFSET 0 8.597 -4.6522
    CHANNELS 3 Zrotation Xrotation Yrotation
    JOINT Spine1
    {
      OFFSET 0 7.8454 0.4098
      CHANNELS 3 Zrotation Xrotation Yrotation
      JOINT Spine2
      {
        OFFSET 0 9.7078 -2.1609
        CHANNELS 3 Zrotation Xrotation Yrotation
        JOINT Neck
        {
          OFFSET 0 21.8761 -0.4549
          CHANNELS 3 Zrotation Xrotation Yrotation
          JOINT Head
          {
            OFFSET 0 12.3537 3.3602
            CHANNELS 3 Zrotation Xrotation Yrotation
            End Site
            {
              OFFSET 0.0001 18.9506 0.5657
            }
          }
        }
        JOINT LeftShoulder
        {
          OFFSET 2.2086 21.1115 7.2329
          CHANNELS 3 Zrotation Xrotation Yrotation
          JOINT LeftArm
          {
            OFFSET 13.1193 3.0282 -4.8998
            CHANNELS 3 Zrotation Xrotation Yrotation
            JOINT LeftForeArm
            {
              OFFSET 27.4081 -0.0973053 -0.2375
              CHANNELS 3 Zrotation Xrotation Yrotation
              JOINT LeftHand
              {
                OFFSET 22.8641 0.0662994 -0.1369
                CHANNELS 3 Zrotation Xrotation Yrotation
                JOINT LeftHandIndex1
                {
                  OFFSET 8.8614 0.775009 2.4612
                  CHANNELS 3 Zrotation Xrotation Yrotation
                  JOINT LeftHandIndex2
                  {
                    OFFSET 3.3146 -0.808304 0.5841
                    CHANNELS 3 Zrotation Xrotation Yrotation
                    JOINT LeftHandIndex3
                    {
                      OFFSET 2.2628 -0.552002 0.3989
                      CHANNELS 3 Zrotation Xrotation Yrotation
                      End Site
                      {
                        OFFSET 1.6102 -0.4807 0.2612
                      }
                    }
                  }
                }
                JOINT LeftHandMiddle1
                {
                  OFFSET 8.9937 0.895004 0.2143
                  CHANNELS 3 Zrotation Xrotation Yrotation
                  JOINT LeftHandMiddle2
                  {
                    OFFSET 4.0984 0.0113983 -0.0242
                    CHANNELS 3 Zrotation Xrotation Yrotation
                    JOINT LeftHandMiddle3
                    {
                      OFFSET 2.2716 0.00689697 -0.0138001
                      CHANNELS 3 Zrotation Xrotation Yrotation
                      End Site
                      {
                        OFFSET 2.0404 -0.1441 0.0027
                      }
                    }
                  }
                }
                JOINT LeftHandRing1
                {
                  OFFSET 8.5234 0.597198 -2.0164
                  CHANNELS 3 Zrotation Xrotation Yrotation
                  JOINT LeftHandRing2
                  {
                    OFFSET 3.7188 -0.188293 -0.2328
                    CHANNELS 3 Zrotation Xrotation Yrotation
                    JOINT LeftHandRing3
                    {
                      OFFSET 2.1191 -0.106598 -0.1332
                      CHANNELS 3 Zrotation Xrotation Yrotation
                      End Site
                      {
                        OFFSET 1.8737 -0.2304 -0.0886
                      }
                    }
                  }
                }
                JOINT LeftHandPinky1
                {
                  OFFSET 7.9094 -0.601089 -3.4825
                  CHANNELS 3 Zrotation Xrotation Yrotation
                  JOINT LeftHandPinky2
                  {
                    OFFSET 2.2874 -0.477005 -0.6314
                    CHANNELS 3 Zrotation Xrotation Yrotation
                    JOINT LeftHandPinky3
                    {
                      OFFSET 1.6774 -0.349396 -0.4633
                      CHANNELS 3 Zrotation Xrotation Yrotation
                      End Site
                      {
                        OFFSET 1.4888 -0.4091 -0.3416
                      }
                    }
                  }
                }
                JOINT LeftHandThumb1
                {
                  OFFSET 1.833 -1.3875 1.3896
                  CHANNELS 3 Zrotation Xrotation Yrotation
                  JOINT LeftHandThumb2
                  {
                    OFFSET 3.4129 -1.121 2.5732
                    CHANNELS 3 Zrotation Xrotation Yrotation
                    JOINT LeftHandThumb3
                    {
                      OFFSET 2.2474 -0.804199 1.6192
                      CHANNELS 3 Zrotation Xrotation Yrotation
                      End Site
                      {
                        OFFSET 1.6527 -0.5689 1.1317
                      }
                    }
                  }
                }
              }
            }
          }
        }
        JOINT RightShoulder
        {
          OFFSET -2.2086 21.1115 7.2329
          CHANNELS 3 Zrotation Xrotation Yrotation
          JOINT RightArm
          {
            OFFSET -13.1216 3.0287 -4.9007
            CHANNELS 3 Zrotation Xrotation Yrotation
            JOINT RightForeArm
            {
              OFFSET -27.4081 -0.0973053 -0.2375
              CHANNELS 3 Zrotation Xrotation Yrotation
              JOINT RightHand
              {
                OFFSET -22.8641 0.0664063 -0.1369
                CHANNELS 3 Zrotation Xrotation Yrotation
                JOINT RightHandIndex1
                {
                  OFFSET -8.8614 0.774994 2.4612
                  CHANNELS 3 Zrotation Xrotation Yrotation
                  JOINT RightHandIndex2
                  {
                    OFFSET -3.3146 -0.808304 0.5841
                    CHANNELS 3 Zrotation Xrotation Yrotation
                    JOINT RightHandIndex3
                    {
                      OFFSET -2.2628 -0.552002 0.3989
                      CHANNELS 3 Zrotation Xrotation Yrotation
                      End Site
                      {
                        OFFSET -1.6102 -0.4807 0.2612
                      }
                    }
                  }
                }
                JOINT RightHandMiddle1
                {
                  OFFSET -8.9937 0.894989 0.2143
                  CHANNELS 3 Zrotation Xrotation Yrotation
                  JOINT RightHandMiddle2
                  {
                    OFFSET -4.0984 0.0113983 -0.0242
                    CHANNELS 3 Zrotation Xrotation Yrotation
                    JOINT RightHandMiddle3
                    {
                      OFFSET -2.2716 0.00691223 -0.0138001
                      CHANNELS 3 Zrotation Xrotation Yrotation
                      End Site
                      {
                        OFFSET -2.0404 -0.1441 0.0027
                      }
                    }
                  }
                }
                JOINT RightHandRing1
                {
                  OFFSET -8.5234 0.597198 -2.0164
                  CHANNELS 3 Zrotation Xrotation Yrotation
                  JOINT RightHandRing2
                  {
                    OFFSET -3.7188 -0.188309 -0.2328
                    CHANNELS 3 Zrotation Xrotation Yrotation
                    JOINT RightHandRing3
                    {
                      OFFSET -2.1191 -0.106598 -0.1332
                      CHANNELS 3 Zrotation Xrotation Yrotation
                      End Site
                      {
                        OFFSET -1.8737 -0.2304 -0.0886
                      }
                    }
                  }
                }
                JOINT RightHandPinky1
                {
                  OFFSET -7.9094 -0.601105 -3.4825
                  CHANNELS 3 Zrotation Xrotation Yrotation
                  JOINT RightHandPinky2
                  {
                    OFFSET -2.2874 -0.477005 -0.6314
                    CHANNELS 3 Zrotation Xrotation Yrotation
                    JOINT RightHandPinky3
                    {
                      OFFSET -1.6774 -0.349396 -0.4633
                      CHANNELS 3 Zrotation Xrotation Yrotation
                      End Site
                      {
                        OFFSET -1.4888 -0.4091 -0.3416
                      }
                    }
                  }
                }
                JOINT RightHandThumb1
                {
                  OFFSET -1.833 -1.38751 1.3896
                  CHANNELS 3 Zrotation Xrotation Yrotation
                  JOINT RightHandThumb2
                  {
                    OFFSET -3.41299 -1.12099 2.5732
                    CHANNELS 3 Zrotation Xrotation Yrotation
                    JOINT RightHandThumb3
                    {
                      OFFSET -2.24741 -0.804108 1.6192
                      CHANNELS 3 Zrotation Xrotation Yrotation
                      End Site
                      {
                        OFFSET -1.6527 -0.5689 1.1317
                      }
                    }
                  }
                }
              }
            }
          }
        }
      }
    }
  }
  JOINT RightUpLeg
  {
    OFFSET -9.1966 3.8861 -0.7581
    CHANNELS 3 Zrotation Xrotation Yrotation
    JOINT RightLeg
    {
      OFFSET -0.7359 -41.0265 0
      CHANNELS 3 Zrotation Xrotation Yrotation
      JOINT RightFoot
      {
        OFFSET 0 -40.2855 0
        CHANNELS 3 Zrotation Xrotation Yrotation
        JOINT RightToeBase
        {
          OFFSET 0 -5.6122 11.7359
          CHANNELS 3 Zrotation Xrotation Yrotation
          End Site
          {
            OFFSET 0 0 7.8731
          }
        }
      }
    }
  }
  JOINT LeftUpLeg
  {
    OFFSET 9.1965 3.8864 -0.7581
    CHANNELS 3 Zrotation Xrotation Yrotation
    JOINT LeftLeg
    {
      OFFSET 0.7359 -41.0268 0
      CHANNELS 3 Zrotation Xrotation Yrotation
      JOINT LeftFoot
      {
        OFFSET 0 -40.2855 0
        CHANNELS 3 Zrotation Xrotation Yrotation
        JOINT LeftToeBase
        {
          OFFSET 0 -5.6122 11.7359
          CHANNELS 3 Zrotation Xrotation Yrotation
          End Site
          {
            OFFSET 0 0 7.8731
          }
        }
      }
    }
  }
}
MOTION
Frames:	5
Frame Time:	0.0333333
-0.00554968 58.1336 -14.0677 0.0104733 -9.49796 -179.874 -1.07292 1.28111 -0.323084 -2.13939 2.56803 -0.622343 -2.13939 2.56803 -0.622344 -1.21369e-005 -23.0547 -1.93791e-006 6.82177e-007 -27.0676 5.33556e-008 -16.0337 24.1509 -26.6525 -44.7277 -7.87506 34.2151 -23.2125 -15.8731 -63.4557 -16.2452 0.11418 -5.19425 4.95548e-008 -2.747e-007 -3.22625e-007 -9.91096e-008 5.494e-007 6.4525e-007 4.95548e-008 -2.747e-007 -3.22625e-007 4.95548e-008 -2.747e-007 -3.22625e-007 -0.0145897 -8.80593e-005 1.74313e-008 4.95565e-008 -2.74659e-007 -3.2266e-007 4.95548e-008 -2.747e-007 -3.22625e-007 -0.0188152 -0.00117864 5.98191e-005 4.95538e-008 -2.74647e-007 -3.2267e-007 4.95548e-008 -2.747e-007 -3.22625e-007 -0.0122711 -0.00324641 0.000676246 4.95456e-008 -2.74665e-007 -3.22656e-007 4.95548e-008 -2.747e-007 -3.22625e-007 -9.91096e-008 5.494e-007 6.4525e-007 4.95548e-008 -2.747e-007 -3.22625e-007 18.7101 24.3959 26.6159 44.1623 -7.71103 -33.9813 24.4178 -13.8623 63.753 16.2417 0.11353 5.19078 -3.97569e-016 7.95139e-016 -1.59028e-015 -1.98785e-016 0 -0 2.20695e-032 7.95139e-016 -1.59028e-015 -3.97569e-016 7.95139e-016 -1.59028e-015 0.0150136 -9.07529e-005 -1.78412e-006 -3.97569e-016 -7.95139e-016 -0 -3.97569e-016 7.95139e-016 -1.59028e-015 0.0190125 -0.00119186 -5.93481e-005 5.96354e-016 -7.95139e-016 -0 -3.97569e-016 7.95139e-016 -1.59028e-015 0.0122744 -0.00324897 -0.00067495 -1.98785e-016 1.59028e-015 -0 -3.97569e-016 7.95139e-016 -1.59028e-015 -1.98785e-016 0 -0 2.20695e-032 7.95139e-016 -1.59028e-015 -29.4279 -44.7515 -31.0433 15.2901 37.4744 -15.2015 13.2481 -1.28234 -0.139389 -7.95139e-016 -1.59028e-015 -0 29.4086 -44.7661 31.0146 -15.2885 37.4587 15.201 -13.2723 -1.2643 0.141203 4.96954e-007 1.42787e-006 1.86702e-006 
-0.00531053 58.1206 -13.9868 0.0104576 -9.831 -179.878 -1.07315 1.31723 -0.321115 -2.13975 2.64022 -0.617734 -2.13975 2.64023 -0.617734 -7.48209e-006 -22.6104 -4.203e-006 8.84524e-007 -26.6365 4.98326e-007 -16.4124 24.3118 -26.4366 -44.4086 -7.69429 34.0371 -23.1152 -16.065 -63.3161 -16.2453 0.114183 -5.19425 3.97569e-016 -1.59028e-015 -1.59028e-015 -1.98785e-016 -1.59028e-015 -3.18055e-015 2.78299e-015 0 -0 3.97569e-016 -1.59028e-015 -1.59028e-015 -0.0146023 -8.80386e-005 1.04433e-006 -2.5842e-015 -1.59028e-015 1.59028e-015 3.97569e-016 -1.59028e-015 -1.59028e-015 -0.0187188 -0.00117317 5.93647e-005 -1.59028e-015 1.59028e-015 -3.18055e-015 3.97569e-016 -1.59028e-015 -1.59028e-015 -0.0122521 -0.00324323 0.000675505 4.17448e-015 3.18055e-015 -1.59028e-015 3.97569e-016 -1.59028e-015 -1.59028e-015 -1.98785e-016 -1.59028e-015 -3.18055e-015 2.78299e-015 0 -0 19.1124 24.5766 26.3816 43.8616 -7.54345 -33.7823 24.3135 -14.0764 63.5611 16.2417 0.113531 5.19078 -5.96354e-016 0 -1.59028e-015 -2.33644e-008 -1.46662e-007 1.53175e-007 -2.33644e-008 -1.46662e-007 1.53175e-007 -5.96354e-016 0 -1.59028e-015 0.0150004 -9.14219e-005 -8.70779e-007 -2.33651e-008 -1.46642e-007 1.53194e-007 -5.96354e-016 0 -1.59028e-015 0.0189938 -0.00119211 -6.09098e-005 -2.33638e-008 -1.46637e-007 1.53199e-007 -5.96354e-016 0 -1.59028e-015 0.0123138 -0.00325904 -0.000677571 -2.33599e-008 -1.46646e-007 1.53191e-007 -5.96354e-016 0 -1.59028e-015 -2.33644e-008 -1.46662e-007 1.53175e-007 -2.33644e-008 -1.46662e-007 1.53175e-007 -29.5714 -45.0776 -31.1935 15.2913 37.4764 -15.2017 13.2483 -1.28446 -0.139136 -3.01822e-006 1.56463e-006 -2.75699e-007 29.5517 -45.0918 31.1643 -15.2897 37.4609 15.2012 -13.2725 -1.26648 0.140957 7.95139e-016 1.59028e-015 -3.18055e-015 
-0.00507529 58.1078 -13.9059 0.0104368 -10.1641 -179.883 -1.07337 1.35334 -0.319142 -2.14009 2.71241 -0.613119 -2.14009 2.71241 -0.613119 -7.75572e-005 -22.1654 -1.67094e-005 -2.14791e-006 -26.205 -7.59093e-007 -16.7923 24.4714 -26.2192 -44.089 -7.51444 33.858 -23.0174 -16.2568 -63.176 -16.2452 0.114179 -5.19425 1.39149e-015 1.59028e-015 -0 9.59038e-006 8.03226e-007 3.9542e-007 4.73999e-008 -7.83139e-007 3.88922e-007 1.39149e-015 1.59028e-015 -0 -0.0146205 -8.77151e-005 1.99466e-006 4.73889e-008 -7.83189e-007 3.88821e-007 1.39149e-015 1.59028e-015 -0 -0.018832 -0.00118056 5.82003e-005 4.7389e-008 -7.83204e-007 3.88792e-007 1.39149e-015 1.59028e-015 -0 -0.0122285 -0.00323775 0.000675883 4.73968e-008 -7.83183e-007 3.88837e-007 1.39149e-015 1.59028e-015 -0 9.59038e-006 8.03226e-007 3.9542e-007 4.73999e-008 -7.83139e-007 3.88922e-007 19.5162 24.756 26.1455 43.5603 -7.37685 -33.5824 24.2085 -14.2901 63.3686 16.2417 0.113531 5.19078 -7.95139e-016 2.38542e-014 -1.59028e-015 -2.2549e-008 -1.46773e-007 1.53223e-007 9.93923e-016 -3.18055e-015 1.59028e-015 -7.95139e-016 2.38542e-014 -1.59028e-015 0.014964 -9.1185e-005 -1.59673e-006 -3.97569e-016 1.59028e-015 -0 -7.95139e-016 2.38542e-014 -1.59028e-015 0.0190436 -0.00119389 -6.03792e-005 -5.96354e-016 1.59028e-015 3.18055e-015 -7.95139e-016 2.38542e-014 -1.59028e-015 0.0122583 -0.00324546 -0.000675008 -1.32417e-031 -2.38542e-015 -3.18055e-015 -7.95139e-016 2.38542e-014 -1.59028e-015 -2.2549e-008 -1.46773e-007 1.53223e-007 9.93923e-016 -3.18055e-015 1.59028e-015 -29.7172 -45.4036 -31.3458 15.2926 37.4786 -15.202 13.2485 -1.28674 -0.138872 -1.64872e-006 -3.65615e-007 1.25551e-007 29.6968 -45.4174 31.316 -15.2909 37.4629 15.2014 -13.2727 -1.26864 0.140702 1.84257e-007 8.2402e-007 1.09529e-007 
-0.00484283 58.0952 -13.8249 0.0103803 -10.4973 -179.887 -1.07362 1.38946 -0.317173 -2.14047 2.78463 -0.60851 -2.14047 2.78463 -0.608509 5.72389e-006 -21.72 -1.8602e-006 4.01972e-007 -25.773 -2.2119e-007 -17.1735 24.6297 -26.0003 -43.7689 -7.33553 33.678 -22.9189 -16.4483 -63.0355 -16.2453 0.114187 -5.19425 2.27133e-008 -1.37685e-007 -1.61424e-007 2.27133e-008 -1.37685e-007 -1.61424e-007 2.27133e-008 -1.37685e-007 -1.61424e-007 2.27133e-008 -1.37685e-007 -1.61424e-007 -0.0145985 -8.84611e-005 2.93954e-007 2.27138e-008 -1.37664e-007 -1.61442e-007 2.27133e-008 -1.37685e-007 -1.61424e-007 -0.0187411 -0.00117568 5.96581e-005 2.27125e-008 -1.37659e-007 -1.61447e-007 2.27133e-008 -1.37685e-007 -1.61424e-007 -0.0122628 -0.00324563 0.000675544 2.27085e-008 -1.37668e-007 -1.6144e-007 2.27133e-008 -1.37685e-007 -1.61424e-007 2.27133e-008 -1.37685e-007 -1.61424e-007 2.27133e-008 -1.37685e-007 -1.61424e-007 19.9215 24.9338 25.9077 43.2584 -7.21125 -33.3816 24.1025 -14.5036 63.1754 16.2418 0.113533 5.19079 0 0 -3.18055e-015 2.17346e-008 1.46878e-007 -1.53267e-007 -5.96354e-016 7.95139e-016 1.59028e-015 0 0 -3.18055e-015 0.01502 -9.11316e-005 7.39961e-007 -1.98785e-016 0 -1.59028e-015 0 0 -3.18055e-015 0.0190019 -0.00119268 -5.99637e-005 -1.19271e-015 1.59028e-015 1.59028e-015 0 0 -3.18055e-015 0.012289 -0.00325393 -0.000679082 -5.96354e-016 0 1.59028e-015 0 0 -3.18055e-015 2.17346e-008 1.46878e-007 -1.53267e-007 -5.96354e-016 7.95139e-016 1.59028e-015 -29.8649 -45.7293 -31.5002 15.2938 37.4806 -15.2022 13.2487 -1.28887 -0.138621 5.22438e-007 4.29032e-007 -1.96518e-006 29.8441 -45.7428 31.4698 -15.2922 37.4651 15.2017 -13.2729 -1.27086 0.140438 5.76416e-008 1.04298e-006 -1.53893e-006 
-0.0046147 58.0829 -13.7438 0.0103061 -10.8305 -179.891 -1.07385 1.4256 -0.315201 -2.14083 2.85683 -0.603894 -2.14083 2.85683 -0.603893 -3.10448e-005 -21.2741 -5.27475e-006 -4.50714e-008 -25.3405 -9.92906e-008 -17.5559 24.7868 -25.7798 -43.4483 -7.15756 33.4969 -22.8198 -16.6396 -62.8944 -16.2453 0.114185 -5.19425 -5.95028e-006 5.12839e-008 -6.77363e-007 5.16225e-006 -3.6636e-007 1.41748e-006 -2.20274e-008 1.37788e-007 1.61455e-007 -5.95028e-006 5.12839e-008 -6.77363e-007 -0.0145725 -8.81968e-005 -8.27296e-007 -2.20278e-008 1.37767e-007 1.61473e-007 -5.95028e-006 5.12839e-008 -6.77363e-007 -0.0187672 -0.00117564 5.90141e-005 -5.97462e-006 1.89015e-007 -5.15808e-007 -5.95028e-006 5.12839e-008 -6.77363e-007 -0.0122052 -0.00323091 0.000672534 -5.97382e-006 1.88765e-007 -5.15637e-007 -5.95028e-006 5.12839e-008 -6.77363e-007 5.16225e-006 -3.6636e-007 1.41748e-006 -2.20274e-008 1.37788e-007 1.61455e-007 20.3283 25.1101 25.6681 42.956 -7.04665 -33.18 23.9958 -14.7168 62.9817 16.2417 0.113531 5.19078 9.93923e-016 -1.59028e-015 3.18055e-015 5.96354e-016 -1.59028e-015 1.59028e-015 5.96354e-016 -7.95139e-016 -0 9.93923e-016 -1.59028e-015 3.18055e-015 0.0150232 -9.12774e-005 -1.33553e-007 -7.95139e-016 1.59028e-015 -0 9.93923e-016 -1.59028e-015 3.18055e-015 0.0189949 -0.00119043 -5.9353e-005 5.96354e-016 1.59028e-015 1.59028e-015 9.93923e-016 -1.59028e-015 3.18055e-015 0.0122723 -0.00325036 -0.000678251 6.62086e-032 -2.38542e-015 1.59028e-015 9.93923e-016 -1.59028e-015 3.18055e-015 5.96354e-016 -1.59028e-015 1.59028e-015 5.96354e-016 -7.95139e-016 -0 -30.0148 -46.0548 -31.6568 15.295 37.4827 -15.2024 13.2489 -1.29108 -0.138358 -8.74653e-015 -1.59028e-015 -6.36111e-015 29.9935 -46.0679 31.6258 -15.2935 37.4672 15.202 -13.2732 -1.27305 0.14018 1.60583e-006 -6.97516e-007 1.1382e-006 
